<?xml version="1.0" encoding="UTF-8"?>
<svg xmlns="http://www.w3.org/2000/svg" version="1.1" viewBox="0 0 100 100">
  <defs>
    <style>
      .cls-1 {
        fill: #5c5a5a;
      }

      .cls-2 {
        fill: #669811;
      }
    </style>
  </defs>
  <!-- Generator: Adobe Illustrator 28.6.0, SVG Export Plug-In . SVG Version: 1.2.0 Build 709)  -->
  <g>
    <g id="Layer_1">
      <g>
        <path class="cls-2" d="M19.7,80.4c.6-1,1.2-1.9,1.8-2.8,12.2-18.6,24.4-37.3,36.5-55.9.9-1.4,2.2-2.1,3.8-2.2,6,0,11.9,0,17.9,0,0,0,0,0,.2,0-.2.5-.5.9-.8,1.3-12,18.4-24.1,36.8-36.1,55.2-.5.7-.9,1.4-1.4,2.2-.9,1.4-2.2,2.2-3.9,2.2-5.9,0-11.9,0-17.8,0,0,0-.1,0-.2,0Z"/>
        <path class="cls-2" d="M45.8,80.4c.6-.9,1.1-1.7,1.7-2.6,10.9-16.6,21.7-33.2,32.6-49.8,1.8-2.7,3.5-5.4,5.3-8.1.2-.3.4-.4.7-.4,1,0,1.9,0,2.9.1,2,.4,3.4,2.1,3.4,4.2,0,5.2,0,10.3,0,15.5,0,.8-.3,1.6-.7,2.3-5.2,8-10.5,16-15.7,24-2.7,4.2-5.5,8.4-8.2,12.6-.9,1.5-2.3,2.2-4,2.2-5.9,0-11.8,0-17.7,0,0,0-.1,0-.3,0Z"/>
        <path class="cls-1" d="M54.2,19.5c-.9,1.3-1.6,2.5-2.4,3.7-2.8,4.3-5.6,8.6-8.4,12.9-.3.4-.5.6-1,.6-11.4,0-22.8,0-34.1,0-.6,0-.7-.1-.7-.7,0-4,0-7.9,0-11.9,0-2.7,1.9-4.6,4.6-4.6,13.8,0,27.7,0,41.5,0,.1,0,.3,0,.5,0Z"/>
        <path class="cls-1" d="M39.9,41.4c-1.3,2-2.6,3.9-3.8,5.8-2.3,3.6-4.7,7.2-7,10.8-.3.5-.6.6-1.1.6-6.6,0-13.1,0-19.7,0-.6,0-.7-.2-.7-.7,0-5.3,0-10.6,0-15.9,0-.4.1-.5.5-.5,10.5,0,20.9,0,31.4,0h.5Z"/>
        <path class="cls-2" d="M92.4,49.3v.6c0,8.7,0,17.3,0,26,0,2.7-1.7,4.6-4.4,4.6-5.3,0-10.6,0-16.1,0,6.8-10.5,13.6-20.8,20.4-31.2,0,0,0,0,.1,0Z"/>
        <path class="cls-1" d="M25.6,63.3c-1.1,1.7-2.2,3.4-3.3,5-2.5,3.8-5,7.6-7.4,11.4-.3.5-.7.8-1.3.7-.8,0-1.6,0-2.4-.1-2-.4-3.5-2.1-3.5-4.2,0-4.2,0-8.3,0-12.5,0-.3,0-.4.4-.4,5.8,0,11.6,0,17.4,0,0,0,0,0,.2,0Z"/>
      </g>
    </g>
  </g>
</svg>